<svg width="115" height="50" viewBox="0 0 115 50" fill="none" xmlns="http://www.w3.org/2000/svg">
<mask id="mask0_2327_2151" style="mask-type:alpha" maskUnits="userSpaceOnUse" x="0" y="0" width="115" height="50">
<path fill-rule="evenodd" clip-rule="evenodd" d="M0 50H114.103V0H0V50Z" fill="white"/>
</mask>
<g mask="url(#mask0_2327_2151)">
<path fill-rule="evenodd" clip-rule="evenodd" d="M57.0497 46.4301C45.2056 46.4301 35.5703 36.8189 35.5703 25.0009C35.5703 13.1849 45.2056 3.56885 57.0497 3.56885C68.8949 3.56885 78.5302 13.1849 78.5302 25.0009C78.5302 36.8189 68.8949 46.4301 57.0497 46.4301ZM90.8385 34.8209H80.0924C80.666 33.4891 81.1188 32.0967 81.4566 30.6552H95.0207L98.5988 27.0853H82.0165C82.0725 26.3964 82.1088 25.7036 82.1088 25.001C82.1088 24.2984 82.0725 23.6046 82.0165 22.9167H102.773L106.35 19.3478H81.4566C81.1188 17.9063 80.666 16.5118 80.0924 15.1782H110.524L114.103 11.6083H78.1928C73.7426 4.63801 65.9332 0 57.0503 0C48.1694 0 40.36 4.63801 35.9087 11.6083H0L3.57516 15.1782H34.0112C33.4376 16.5118 32.9818 17.9063 32.6459 19.3478H7.7524L11.3285 22.9167H32.0871C32.0301 23.6046 31.9928 24.2984 31.9928 25.001C31.9928 25.7036 32.0301 26.3964 32.0871 27.0853H15.5068L19.0809 30.6552H32.6459C32.9818 32.0967 33.4376 33.4891 34.0112 34.8209H23.2592L26.8343 38.3888H35.9087C40.36 45.361 48.1713 50 57.0503 50C65.9332 50 73.7426 45.361 78.1928 38.3888H87.2633L90.8385 34.8209ZM71.8477 30.6552H74.1903V19.3477H71.8477V30.6552ZM61.9925 30.6552H59.7384V19.3477H62.5052L67.0223 27.5478V19.3477H69.2705V30.6552H66.5027L61.9925 22.4953V30.6552ZM54.8242 30.6552H57.1707V19.3477H54.8242V30.6552ZM42.125 30.6552H39.9121V19.3477H43.2083L46.0969 28.3758L48.963 19.3477H52.2582V30.6552H49.9736V22.2836L47.3217 30.6552H44.8505L42.125 22.2209V30.6552Z" fill="black"/>
</g>
</svg>
